<svg width="296" height="246" viewBox="0 0 296 246" fill="none" xmlns="http://www.w3.org/2000/svg">
<path d="M253 176.545V197L291.957 174.351C292.889 173.809 292.422 172.378 291.349 172.492L253 176.545Z" fill="#EFEFEF"/>
<path d="M5.12825 68.4095C4.03564 68.5353 3.57017 67.0619 4.53676 66.5372L33.5229 50.8019C34.1892 50.4401 35 50.9225 35 51.6807V64.0782C35 64.5863 34.6191 65.0136 34.1144 65.0717L5.12825 68.4095Z" fill="#EFEFEF"/>
<path d="M34.5557 65.7072L35.6088 3.19419C35.6233 2.33354 36.3576 1.66162 37.2161 1.72331L258.714 17.6406C259.576 17.7025 260.207 18.4778 260.093 19.3343L256.347 47.5314C256.254 48.2298 255.688 48.7695 254.986 48.8285L36.1812 67.2272C35.2962 67.3016 34.5407 66.5952 34.5557 65.7072Z" fill="#323345" stroke="#23C56E" stroke-width="3"/>
<path d="M35.4929 219.73L250.493 244.112C253.162 244.415 255.5 242.327 255.5 239.641V177.161C255.5 174.583 253.339 172.533 250.765 172.667L35.7649 183.916C33.3742 184.041 31.5 186.016 31.5 188.41V215.258C31.5 217.548 33.2184 219.472 35.4929 219.73Z" fill="#333447" stroke="#23C56E" stroke-width="3"/>
<path d="M293.008 169.622C293.198 171.61 291.689 173.354 289.694 173.451L6.2019 187.245C4.19613 187.343 2.51974 185.736 2.53188 183.728L3.21271 71.0296C3.22371 69.208 4.63016 67.6994 6.44654 67.5609L277.819 46.8686C279.72 46.7236 281.388 48.1271 281.569 50.0252L293.008 169.622Z" fill="#323345" stroke="#FEFEFE" stroke-width="3"/>
</svg>
