<svg width="150" height="150" viewBox="0 0 150 150" fill="none" xmlns="http://www.w3.org/2000/svg">
<g opacity="0.6">
<path d="M9 93.5L141 93.5" stroke="#FEFEFE" stroke-width="3" stroke-linecap="square"/>
<path d="M92.9519 48.5L109.014 58.1844C110.317 58.97 110.332 61.0163 109.041 61.825L92 72.5" stroke="#FEFEFE" stroke-width="3" stroke-linecap="round"/>
<path d="M58.9953 30.5L42.0411 40.1844C40.6659 40.97 40.6498 43.0163 42.0125 43.825L60 54.5" stroke="#FEFEFE" stroke-width="3" stroke-linecap="round"/>
<path d="M87 30.5C87 30.5 84.2243 34.6651 81.4518 40.4209C81.4266 40.4733 81.4037 40.5267 81.3831 40.581C81.0753 41.3912 78.5105 48.0986 76.2931 52.5C73.9949 57.0619 69.1728 63.5597 68.8607 63.9787C68.8498 63.9934 68.8391 64.0073 68.8276 64.0217C64.8088 69.0909 60 72.5 60 72.5" stroke="#FEFEFE" stroke-width="3" stroke-linecap="round"/>
<rect x="7" y="7.5" width="136" height="107" rx="13" stroke="#FEFEFE" stroke-width="4"/>
<rect x="70" y="101.5" width="10" height="5" rx="2.5" fill="#FEFEFE"/>
<path d="M94 135.846C92.7023 135.491 90.9958 135.047 89.0747 134.602C84.8404 133.621 79.4048 132.6 75 132.6C70.5952 132.6 65.1596 133.621 60.9253 134.602C59.0042 135.047 57.2977 135.491 56 135.846V114.5H94V135.846Z" stroke="#FEFEFE" stroke-width="4"/>
<path d="M47 145.5C47 144.765 47.2927 142.968 48.6329 141.318C49.9339 139.715 51.9372 138.154 54.5957 136.797C57.2377 135.449 60.4026 134.366 63.9136 133.624C67.4221 132.883 71.1901 132.5 75 132.5C78.8099 132.5 82.5779 132.883 86.0864 133.624C89.5974 134.366 92.7623 135.449 95.4043 136.797C98.0628 138.154 100.066 139.715 101.367 141.318C102.707 142.968 103 144.765 103 145.5" stroke="#FEFEFE" stroke-width="4"/>
</g>
</svg>
